<?xml version="1.0" standalone="no"?><!DOCTYPE svg PUBLIC "-//W3C//DTD SVG 1.1//EN" "http://www.w3.org/Graphics/SVG/1.1/DTD/svg11.dtd"><svg height="800" node-id="1" sillyvg="true" template-height="800" template-width="800" version="1.1" viewBox="0 0 800 800" width="800" xmlns="http://www.w3.org/2000/svg" xmlns:xlink="http://www.w3.org/1999/xlink"><defs node-id="202"><linearGradient gradientUnits="userSpaceOnUse" id="SVGID_1_" node-id="19" spreadMethod="pad" x1="402.6138" x2="402.6138" y1="160.7809" y2="716.2725"><stop offset="0.00000009590021" stop-color="#f4f2fb"></stop><stop offset="1" stop-color="#e1eef5"></stop></linearGradient><linearGradient gradientUnits="userSpaceOnUse" id="SVGID_2_" node-id="23" spreadMethod="pad" x1="329.1308" x2="521.4274" y1="667.8314" y2="334.7639"><stop offset="0.3396" stop-color="#b0b9e1"></stop><stop offset="0.8657" stop-color="#eaf0f8"></stop></linearGradient><linearGradient gradientUnits="userSpaceOnUse" id="SVGID_3_" node-id="28" spreadMethod="pad" x1="117.6956" x2="117.6956" y1="541.1672" y2="403.9926"><stop offset="0.2267" stop-color="#b7ace0"></stop><stop offset="0.7893" stop-color="#e8e7fa"></stop></linearGradient><linearGradient gradientUnits="userSpaceOnUse" id="SVGID_4_" node-id="33" spreadMethod="pad" x1="117.6974" x2="117.6974" y1="419.2243" y2="570.3577"><stop offset="0" stop-color="#ecf1fb"></stop><stop offset="0.818" stop-color="#afb0e7"></stop></linearGradient><linearGradient gradientUnits="userSpaceOnUse" id="SVGID_5_" node-id="38" spreadMethod="pad" x1="618.8244" x2="618.8244" y1="449.6453" y2="361.3208"><stop offset="0.2267" stop-color="#ccd4f4"></stop><stop offset="0.7893" stop-color="#ecf1fb"></stop></linearGradient><linearGradient gradientUnits="userSpaceOnUse" id="SVGID_6_" node-id="43" spreadMethod="pad" x1="618.8256" x2="618.8256" y1="371.1282" y2="468.4406"><stop offset="0" stop-color="#ecf1fb"></stop><stop offset="1" stop-color="#a6a8e2"></stop></linearGradient><linearGradient gradientUnits="userSpaceOnUse" id="SVGID_7_" node-id="47" spreadMethod="pad" x1="464.7425" x2="429.9882" y1="87.0387" y2="147.2348"><stop offset="0" stop-color="#ffdb80"></stop><stop offset="1" stop-color="#ffbb24"></stop></linearGradient><linearGradient gradientUnits="userSpaceOnUse" id="SVGID_8_" node-id="51" spreadMethod="pad" x1="422.4053" x2="422.4053" y1="117.5048" y2="174.9588"><stop offset="0" stop-color="#f9fafe"></stop><stop offset="1" stop-color="#e5edf7"></stop></linearGradient><linearGradient gradientUnits="userSpaceOnUse" id="SVGID_9_" node-id="56" spreadMethod="pad" x1="689.4267" x2="689.4267" y1="538.8854" y2="511.0572"><stop offset="0.2267" stop-color="#afb0e7"></stop><stop offset="1" stop-color="#ecf1fb"></stop></linearGradient><linearGradient gradientUnits="userSpaceOnUse" id="SVGID_10_" node-id="60" spreadMethod="pad" x1="689.4758" x2="689.4758" y1="514.5709" y2="559.3668"><stop offset="0.00000009590021" stop-color="#dde1f6"></stop><stop offset="0.818" stop-color="#a6a8e2"></stop></linearGradient><linearGradient gradientUnits="userSpaceOnUse" id="SVGID_11_" node-id="65" spreadMethod="pad" x1="569.9565" x2="587.6913" y1="522.8313" y2="553.5488"><stop offset="0" stop-color="#9eb6d8"></stop><stop offset="1" stop-color="#9194c9"></stop></linearGradient><linearGradient gradientUnits="userSpaceOnUse" id="SVGID_12_" node-id="69" spreadMethod="pad" x1="557.4269" x2="578.8872" y1="521.4615" y2="558.6318"><stop offset="0.1157" stop-color="#dee4ff"></stop><stop offset="0.8472" stop-color="#bacbee"></stop></linearGradient><linearGradient gradientUnits="userSpaceOnUse" id="SVGID_13_" node-id="73" spreadMethod="pad" x1="276.2471" x2="295.0154" y1="454.5114" y2="487.0189"><stop offset="0" stop-color="#9eb6d8"></stop><stop offset="1" stop-color="#9194c9"></stop></linearGradient><linearGradient gradientUnits="userSpaceOnUse" id="SVGID_14_" node-id="77" spreadMethod="pad" x1="267.076" x2="288.2014" y1="454.3628" y2="490.9529"><stop offset="0.1157" stop-color="#dee4ff"></stop><stop offset="0.8472" stop-color="#bacbee"></stop></linearGradient><linearGradient gradientUnits="userSpaceOnUse" id="SVGID_15_" node-id="81" spreadMethod="pad" x1="328.2156" x2="439.5805" y1="436.8372" y2="629.7269"><stop offset="0" stop-color="#afc5eb"></stop><stop offset="1" stop-color="#afb0e7"></stop></linearGradient><linearGradient gradientUnits="userSpaceOnUse" id="SVGID_16_" node-id="85" spreadMethod="pad" x1="328.2156" x2="439.5805" y1="440.9963" y2="633.886"><stop offset="0.1157" stop-color="#dee4ff"></stop><stop offset="0.8472" stop-color="#bacbee"></stop></linearGradient><linearGradient gradientUnits="userSpaceOnUse" id="SVGID_17_" node-id="89" spreadMethod="pad" x1="209.0837" x2="253.8855" y1="451.5848" y2="529.1838"><stop offset="0.1157" stop-color="#dee4ff"></stop><stop offset="0.8472" stop-color="#bacbee"></stop></linearGradient><linearGradient gradientUnits="userSpaceOnUse" id="SVGID_18_" node-id="93" spreadMethod="pad" x1="223.9421" x2="263.1039" y1="455.5414" y2="523.3716"><stop offset="0" stop-color="#9eb6d8"></stop><stop offset="1" stop-color="#9194c9"></stop></linearGradient><linearGradient gradientUnits="userSpaceOnUse" id="SVGID_19_" node-id="97" spreadMethod="pad" x1="512.4865" x2="559.0372" y1="527.8867" y2="608.515"><stop offset="0.1157" stop-color="#dee4ff"></stop><stop offset="0.8472" stop-color="#bacbee"></stop></linearGradient><linearGradient gradientUnits="userSpaceOnUse" id="SVGID_20_" node-id="101" spreadMethod="pad" x1="527.692" x2="567.5411" y1="534.0946" y2="603.1154"><stop offset="0" stop-color="#9eb6d8"></stop><stop offset="1" stop-color="#9194c9"></stop></linearGradient><linearGradient gradientUnits="userSpaceOnUse" id="SVGID_21_" node-id="105" spreadMethod="pad" x1="592.9922" x2="592.9922" y1="501.159" y2="337.5751"><stop offset="0" stop-color="#9eb6d8"></stop><stop offset="1" stop-color="#9194c9"></stop></linearGradient><linearGradient gradientUnits="userSpaceOnUse" id="SVGID_22_" node-id="109" spreadMethod="pad" x1="292.9368" x2="505.5376" y1="209.714" y2="577.9495"><stop offset="0.1157" stop-color="#dee4ff"></stop><stop offset="0.8472" stop-color="#bacbee"></stop></linearGradient><linearGradient gradientUnits="userSpaceOnUse" id="SVGID_23_" node-id="113" spreadMethod="pad" x1="344.9484" x2="478.6743" y1="178.7828" y2="410.4028"><stop offset="0.1157" stop-color="#c6d3f4"></stop><stop offset="0.8472" stop-color="#bacbee"></stop></linearGradient><linearGradient gradientUnits="userSpaceOnUse" id="SVGID_24_" node-id="117" spreadMethod="pad" x1="560.8557" x2="641.0508" y1="360.8088" y2="499.7109"><stop offset="0" stop-color="#afc5eb"></stop><stop offset="1" stop-color="#afb0e7"></stop></linearGradient><linearGradient gradientUnits="userSpaceOnUse" id="SVGID_25_" node-id="126" spreadMethod="pad" x1="278.8538" x2="332.6665" y1="276.0491" y2="276.0491"><stop offset="0.00000009590021" stop-color="#f4f2fb"></stop><stop offset="1" stop-color="#e1eef5"></stop></linearGradient><linearGradient gradientUnits="userSpaceOnUse" id="SVGID_26_" node-id="130" spreadMethod="pad" x1="379.5989" x2="430.036" y1="294.2621" y2="294.2621"><stop offset="0.00000009590021" stop-color="#f4f2fb"></stop><stop offset="1" stop-color="#e1eef5"></stop></linearGradient><linearGradient gradientUnits="userSpaceOnUse" id="SVGID_27_" node-id="134" spreadMethod="pad" x1="472.9918" x2="524.4968" y1="311.371" y2="311.371"><stop offset="0.00000009590021" stop-color="#f4f2fb"></stop><stop offset="1" stop-color="#e1eef5"></stop></linearGradient><linearGradient gradientUnits="userSpaceOnUse" id="SVGID_28_" node-id="138" spreadMethod="pad" x1="568.5383" x2="622.4174" y1="328.8255" y2="328.8255"><stop offset="0.00000009590021" stop-color="#f4f2fb"></stop><stop offset="1" stop-color="#e1eef5"></stop></linearGradient><linearGradient gradientUnits="userSpaceOnUse" id="SVGID_29_" node-id="143" spreadMethod="pad" x1="206.2043" x2="206.2043" y1="564.5048" y2="488.8849"><stop offset="0" stop-color="#c3d5fd"></stop><stop offset="1" stop-color="#1a90fc"></stop></linearGradient><linearGradient gradientUnits="userSpaceOnUse" id="SVGID_30_" node-id="147" spreadMethod="pad" x1="207.2529" x2="207.2529" y1="475.9879" y2="499.9438"><stop offset="0" stop-color="#f4ae98"></stop><stop offset="1" stop-color="#fad1bb"></stop></linearGradient><linearGradient gradientTransform="matrix(0.9901 -0.1406 0.1406 0.9901 1323.0521 -488.4161)" gradientUnits="userSpaceOnUse" id="SVGID_31_" node-id="151" spreadMethod="pad" x1="-1279.4722" x2="-1267.7632" y1="892.169" y2="809.7254"><stop offset="0" stop-color="#c3d5fd"></stop><stop offset="1" stop-color="#1a90fc"></stop></linearGradient><linearGradient gradientTransform="matrix(-0.9901 -0.1406 -0.1406 0.9901 -6677.0557 -488.4161)" gradientUnits="userSpaceOnUse" id="SVGID_32_" node-id="155" spreadMethod="pad" x1="-6987.0747" x2="-6975.3657" y1="81.5551" y2="-0.8885"><stop offset="0" stop-color="#c3d5fd"></stop><stop offset="1" stop-color="#1a90fc"></stop></linearGradient><linearGradient gradientUnits="userSpaceOnUse" id="SVGID_33_" node-id="159" spreadMethod="pad" x1="206.2043" x2="206.2043" y1="537.1954" y2="585.2507"><stop offset="0" stop-color="#275c89"></stop><stop offset="1" stop-color="#013f7c"></stop></linearGradient><linearGradient gradientUnits="userSpaceOnUse" id="SVGID_34_" node-id="165" spreadMethod="pad" x1="5695.1514" x2="5678.139" y1="605.9902" y2="605.9902"><stop offset="0" stop-color="#f4b9a4"></stop><stop offset="0.652" stop-color="#fad1bb"></stop></linearGradient><linearGradient gradientUnits="userSpaceOnUse" id="SVGID_35_" node-id="169" spreadMethod="pad" x1="183.1378" x2="270.9006" y1="587.2399" y2="587.2399"><stop offset="0" stop-color="#18264b"></stop><stop offset="0.652" stop-color="#2d3c65"></stop></linearGradient><linearGradient gradientUnits="userSpaceOnUse" id="SVGID_36_" node-id="173" spreadMethod="pad" x1="163.3495" x2="163.3495" y1="597.7255" y2="615.7841"><stop offset="0" stop-color="#ffdb80"></stop><stop offset="1" stop-color="#ffbb24"></stop></linearGradient><linearGradient gradientUnits="userSpaceOnUse" id="SVGID_37_" node-id="179" spreadMethod="pad" x1="225.5401" x2="242.5523" y1="605.9902" y2="605.9902"><stop offset="0" stop-color="#f4b9a4"></stop><stop offset="0.652" stop-color="#fad1bb"></stop></linearGradient><linearGradient gradientUnits="userSpaceOnUse" id="SVGID_38_" node-id="183" spreadMethod="pad" x1="144.7325" x2="232.4953" y1="587.2399" y2="587.2399"><stop offset="0" stop-color="#445677"></stop><stop offset="1" stop-color="#293861"></stop></linearGradient><linearGradient gradientUnits="userSpaceOnUse" id="SVGID_39_" node-id="187" spreadMethod="pad" x1="252.2835" x2="252.2835" y1="597.7255" y2="615.7841"><stop offset="0" stop-color="#ffdb80"></stop><stop offset="1" stop-color="#ffbb24"></stop></linearGradient><linearGradient gradientUnits="userSpaceOnUse" id="SVGID_40_" node-id="191" spreadMethod="pad" x1="222.9326" x2="191.6253" y1="470.4928" y2="470.4928"><stop offset="0" stop-color="#f4b9a4"></stop><stop offset="0.652" stop-color="#fad1bb"></stop></linearGradient><linearGradient gradientUnits="userSpaceOnUse" id="SVGID_41_" node-id="195" spreadMethod="pad" x1="187.3168" x2="223.6645" y1="458.3912" y2="458.3912"><stop offset="0" stop-color="#4f5c7c"></stop><stop offset="1" stop-color="#274168"></stop></linearGradient></defs><g node-id="579"><g node-id="580"><path d="M 485.87 202.13 C 447.50 232.42 365.13 235.94 304.70 199.91 C 244.27 163.88 132.70 168.53 102.48 234.78 C 72.26 301.03 139.67 366.11 115.26 413.76 C 90.85 461.41 9.50 528.81 65.29 610.16 C 121.08 691.51 191.89 670.78 234.51 662.61 C 318.68 646.48 424.30 778.28 543.13 678.74 C 611.60 621.39 713.57 720.83 753.30 597.38 C 786.08 495.52 667.63 457.88 703.33 389.35 C 741.29 316.47 734.00 230.11 692.87 188.29 C 654.56 149.34 552.12 149.84 485.87 202.13 Z" fill="url(#SVGID_1_)" fill-rule="nonzero" group-id="1,2" node-id="456" stroke="none" target-height="628.94006" target-width="776.58" target-x="9.5" target-y="149.34"></path><path d="M 190.15 511.72 C 193.68 508.63 371.25 385.83 371.25 385.83 L 693.26 433.98 L 547.28 614.62 L 534.25 574.00 L 357.12 531.15 L 250.33 595.97 C 250.33 595.97 274.96 587.69 271.09 606.90 C 247.79 609.66 220.73 605.24 220.73 605.24 L 190.15 511.72 Z" fill="url(#SVGID_2_)" fill-rule="nonzero" group-id="1,2" node-id="458" stroke="none" target-height="228.79001" target-width="503.11002" target-x="190.15" target-y="385.83"></path><g node-id="583"><path d="M 118.48 404.23 C 118.48 404.23 118.26 403.66 117.96 404.27 C 115.26 409.76 90.81 469.23 88.87 515.13 C 88.87 515.13 84.79 541.50 118.98 541.15 C 147.52 540.86 146.76 516.55 146.66 508.36 C 146.27 475.14 118.48 404.23 118.48 404.23 Z" fill="url(#SVGID_3_)" fill-rule="nonzero" group-id="1,2,5" node-id="462" stroke="none" target-height="137.84" target-width="62.730003" target-x="84.79" target-y="403.66"></path><g node-id="588"><path d="M 117.70 570.36 C 117.15 570.36 116.70 569.91 116.70 569.36 L 116.70 420.22 C 116.70 419.67 117.15 419.22 117.70 419.22 C 118.25 419.22 118.70 419.67 118.70 420.22 L 118.70 569.35 C 118.70 569.91 118.25 570.36 117.70 570.36 Z" fill="url(#SVGID_4_)" fill-rule="nonzero" group-id="1,2,5,10" node-id="466" stroke="none" target-height="151.13998" target-width="2" target-x="116.7" target-y="419.22"></path></g></g><g node-id="584"><path d="M 619.33 361.48 C 619.33 361.48 619.19 361.11 619.00 361.51 C 617.26 365.04 601.52 403.34 600.27 432.89 C 600.27 432.89 597.64 449.87 619.66 449.65 C 638.04 449.47 637.55 433.81 637.48 428.54 C 637.23 407.13 619.33 361.48 619.33 361.48 Z" fill="url(#SVGID_5_)" fill-rule="nonzero" group-id="1,2,6" node-id="472" stroke="none" target-height="88.76001" target-width="40.399963" target-x="597.64" target-y="361.11"></path><g node-id="589"><path d="M 618.83 468.44 C 618.47 468.44 618.19 468.15 618.19 467.80 L 618.19 371.78 C 618.19 371.42 618.48 371.14 618.83 371.14 C 619.18 371.14 619.47 371.43 619.47 371.78 L 619.47 467.80 C 619.47 468.15 619.18 468.44 618.83 468.44 Z" fill="url(#SVGID_6_)" fill-rule="nonzero" group-id="1,2,6,11" node-id="476" stroke="none" target-height="97.29999" target-width="1.2799683" target-x="618.19" target-y="371.14"></path></g></g><path d="M 482.12 117.14 C 482.12 136.33 466.56 151.89 447.37 151.89 C 428.18 151.89 412.62 136.33 412.62 117.14 C 412.62 97.95 428.18 82.39 447.37 82.39 C 466.56 82.39 482.12 97.95 482.12 117.14 Z" fill="url(#SVGID_7_)" fill-rule="nonzero" group-id="1,2" node-id="480" stroke="none" target-height="69.5" target-width="69.5" target-x="412.62" target-y="82.39"></path><path d="M 467.14 136.09 L 432.57 136.09 C 430.34 125.48 420.92 117.51 409.64 117.51 C 398.36 117.51 388.95 125.48 386.71 136.09 L 377.66 136.09 C 366.93 136.09 358.22 144.79 358.22 155.53 L 358.22 155.53 C 358.22 166.26 366.92 174.97 377.66 174.97 L 467.13 174.97 C 477.86 174.97 486.57 166.27 486.57 155.53 L 486.57 155.53 C 486.58 144.79 477.88 136.09 467.14 136.09 Z" fill="url(#SVGID_8_)" fill-rule="nonzero" group-id="1,2" node-id="482" stroke="none" target-height="57.46" target-width="128.35999" target-x="358.22" target-y="117.51"></path><path d="M 703.34 524.97 C 703.34 532.65 697.11 538.88 689.43 538.88 C 681.75 538.88 675.52 532.65 675.52 524.97 C 675.52 517.29 681.75 511.06 689.43 511.06 C 697.11 511.06 703.34 517.29 703.34 524.97 Z" fill="url(#SVGID_9_)" fill-rule="nonzero" group-id="1,2,7" node-id="486" stroke="none" target-height="27.820007" target-width="27.820007" target-x="675.52" target-y="511.06"></path><path d="M 689.48 559.37 C 689.24 559.37 689.05 559.18 689.05 558.94 L 689.05 515.00 C 689.05 514.76 689.24 514.57 689.48 514.57 C 689.72 514.57 689.91 514.76 689.91 515.00 L 689.91 558.94 C 689.90 559.17 689.71 559.37 689.48 559.37 Z" fill="url(#SVGID_10_)" fill-rule="nonzero" group-id="1,2,7" node-id="488" stroke="none" target-height="44.799988" target-width="0.85998535" target-x="689.05" target-y="514.57"></path></g><g node-id="581"><path d="M 582.87 520.19 L 581.60 554.91 L 577.38 559.50 L 576.00 558.31 L 576.44 519.09 Z" fill="url(#SVGID_11_)" fill-rule="nonzero" group-id="1,3" node-id="494" stroke="none" target-height="40.409973" target-width="6.869995" target-x="576" target-y="519.09"></path><path d="M 553.59 523.68 L 554.60 554.54 L 577.38 559.50 L 578.57 520.10 Z" fill="url(#SVGID_12_)" fill-rule="nonzero" group-id="1,3" node-id="496" stroke="none" target-height="39.400024" target-width="24.97998" target-x="553.59" target-y="520.1"></path><path d="M 288.54 457.97 L 292.37 487.75 L 287.84 491.16 L 280.46 479.65 L 278.32 453.32 Z" fill="url(#SVGID_13_)" fill-rule="nonzero" group-id="1,3" node-id="498" stroke="none" target-height="37.839996" target-width="14.049988" target-x="278.32" target-y="453.32"></path><path d="M 263.96 456.16 L 269.28 486.75 L 287.84 491.16 L 283.71 454.60 Z" fill="url(#SVGID_14_)" fill-rule="nonzero" group-id="1,3" node-id="500" stroke="none" target-height="36.559998" target-width="23.880005" target-x="263.96" target-y="454.6"></path><path d="M 238.14 488.84 L 531.60 559.14 L 530.87 577.02 L 233.25 502.31 Z" fill="url(#SVGID_15_)" fill-rule="nonzero" group-id="1,3" node-id="502" stroke="none" target-height="88.18002" target-width="298.34998" target-x="233.25" target-y="488.84"></path><path d="M 238.14 493.00 L 531.60 563.30 L 530.87 581.18 L 233.25 506.47 Z" fill="url(#SVGID_16_)" fill-rule="nonzero" group-id="1,3" node-id="504" stroke="none" target-height="88.17999" target-width="298.34998" target-x="233.25" target-y="493"></path><path d="M 223.69 443.15 L 215.00 533.67 L 238.27 538.20 L 245.62 443.03 Z" fill="url(#SVGID_17_)" fill-rule="nonzero" group-id="1,3" node-id="506" stroke="none" target-height="95.17001" target-width="30.619995" target-x="215" target-y="443.03"></path><path d="M 250.39 444.01 L 243.66 534.40 L 238.27 537.71 L 245.62 443.03 Z" fill="url(#SVGID_18_)" fill-rule="nonzero" group-id="1,3" node-id="508" stroke="none" target-height="94.68002" target-width="12.119995" target-x="238.27" target-y="443.03"></path><path d="M 528.63 518.57 L 518.62 613.88 L 541.89 618.42 L 550.55 518.44 Z" fill="url(#SVGID_19_)" fill-rule="nonzero" group-id="1,3" node-id="510" stroke="none" target-height="99.97998" target-width="31.929993" target-x="518.62" target-y="518.44"></path><path d="M 554.96 522.09 L 547.28 614.62 L 541.89 617.93 L 550.19 521.11 Z" fill="url(#SVGID_20_)" fill-rule="nonzero" group-id="1,3" node-id="512" stroke="none" target-height="96.82001" target-width="13.070007" target-x="541.89" target-y="521.11"></path><path d="M 583.90 344.74 C 584.45 344.37 616.79 337.58 616.79 337.58 L 614.22 493.19 L 610.48 501.17 L 569.21 496.13 L 583.90 344.74 Z" fill="url(#SVGID_21_)" fill-rule="nonzero" group-id="1,3" node-id="514" stroke="none" target-height="163.59003" target-width="47.579956" target-x="569.21" target-y="337.58"></path><path d="M 195.52 447.44 L 579.49 535.25 L 602.27 339.04 L 200.67 262.99 Z" fill="url(#SVGID_22_)" fill-rule="nonzero" group-id="1,3" node-id="516" stroke="none" target-height="272.26" target-width="406.75" target-x="195.52" target-y="262.99"></path><path d="M 216.71 252.82 L 200.67 262.99 L 602.27 339.04 L 622.42 325.27 Z" fill="url(#SVGID_23_)" fill-rule="nonzero" group-id="1,3" node-id="518" stroke="none" target-height="86.22" target-width="421.75" target-x="200.67" target-y="252.82"></path><path d="M 620.58 492.80 L 610.48 501.16 L 610.24 353.68 L 591.44 525.52 L 579.50 535.26 C 579.50 535.26 600.63 340.15 602.28 339.05 C 603.93 337.95 622.43 325.27 622.43 325.27 L 620.58 492.80 Z" fill="url(#SVGID_24_)" fill-rule="nonzero" group-id="1,3" node-id="520" stroke="none" target-height="209.99002" target-width="42.929993" target-x="579.5" target-y="325.27"></path><path d="M 197.27 384.74 L 314.93 284.63 L 278.85 277.79 L 198.34 346.30 Z" fill="#ffffff" fill-rule="nonzero" group-id="1,3" node-id="522" stroke="none" target-height="106.94998" target-width="117.65999" target-x="197.27" target-y="277.79"></path><path d="M 235.90 456.67 L 415.68 303.71 L 379.60 296.87 L 201.14 448.72 Z" fill="#ffffff" fill-rule="nonzero" group-id="1,3" node-id="524" stroke="none" target-height="159.80002" target-width="214.54" target-x="201.14" target-y="296.87"></path><path d="M 325.89 477.25 L 509.07 321.39 L 472.99 314.56 L 291.13 469.30 Z" fill="#ffffff" fill-rule="nonzero" group-id="1,3" node-id="526" stroke="none" target-height="162.69" target-width="217.94" target-x="291.13" target-y="314.56"></path><path d="M 417.96 498.31 L 601.96 341.75 L 602.27 339.04 L 568.54 332.66 L 383.20 490.36 Z" fill="#ffffff" fill-rule="nonzero" group-id="1,3" node-id="528" stroke="none" target-height="165.65" target-width="219.07" target-x="383.2" target-y="332.66"></path><path d="M 506.80 518.63 L 589.60 448.18 L 594.43 406.54 L 472.04 510.68 Z" fill="#ffffff" fill-rule="nonzero" group-id="1,3" node-id="530" stroke="none" target-height="112.09" target-width="122.389984" target-x="472.04" target-y="406.54"></path><path d="M 278.85 277.79 L 298.60 267.47 L 332.67 273.55 L 314.93 284.63 Z" fill="url(#SVGID_25_)" fill-rule="nonzero" group-id="1,3" node-id="532" stroke="none" target-height="17.160004" target-width="53.820007" target-x="278.85" target-y="267.47"></path><path d="M 379.60 296.87 L 395.99 284.82 L 430.04 290.82 L 415.68 303.71 Z" fill="url(#SVGID_26_)" fill-rule="nonzero" group-id="1,3" node-id="534" stroke="none" target-height="18.889984" target-width="50.440002" target-x="379.6" target-y="284.82"></path><path d="M 472.99 314.56 L 488.80 301.35 L 524.50 307.81 L 509.07 321.39 Z" fill="url(#SVGID_27_)" fill-rule="nonzero" group-id="1,3" node-id="536" stroke="none" target-height="20.040009" target-width="51.51001" target-x="472.99" target-y="301.35"></path><path d="M 568.54 332.66 L 586.33 318.61 L 622.42 325.27 L 615.31 330.04 L 602.27 339.04 Z" fill="url(#SVGID_28_)" fill-rule="nonzero" group-id="1,3" node-id="538" stroke="none" target-height="20.430023" target-width="53.880005" target-x="568.54" target-y="318.61"></path></g><g node-id="582"><path d="M 198.40 489.24 C 198.40 489.24 180.05 486.70 174.09 495.13 C 168.13 503.56 165.95 525.14 165.95 525.14 L 179.76 524.41 L 178.60 549.55 L 204.08 564.49 L 240.38 544.97 L 234.86 522.19 L 246.46 519.16 C 246.46 519.16 243.00 486.10 226.87 490.98 C 218.58 491.87 215.97 491.72 215.97 491.72 C 215.97 491.72 213.79 498.67 206.30 498.08 C 198.81 497.50 198.40 489.24 198.40 489.24 Z" fill="url(#SVGID_29_)" fill-rule="nonzero" group-id="1,4" node-id="543" stroke="none" target-height="78.389984" target-width="80.51001" target-x="165.95" target-y="486.1"></path><path d="M 200.23 478.85 L 196.42 495.86 C 196.24 496.66 196.66 497.47 197.42 497.78 C 199.39 498.58 203.33 499.95 207.39 499.95 C 211.60 499.95 215.57 497.65 217.39 496.42 C 218.02 496.00 218.28 495.21 218.04 494.49 L 212.21 477.14 C 211.94 476.35 211.14 475.87 210.32 476.02 L 201.58 477.57 C 200.91 477.68 200.38 478.19 200.23 478.85 Z" fill="url(#SVGID_30_)" fill-rule="nonzero" group-id="1,4" node-id="545" stroke="none" target-height="24.080017" target-width="22.039993" target-x="196.24" target-y="475.87"></path><path d="M 177.45 492.19 C 182.79 490.42 190.03 491.60 190.33 503.58 C 190.62 515.56 178.88 534.65 183.09 541.29 C 187.35 548.02 196.46 557.58 202.26 563.02 C 200.91 569.42 197.27 574.80 197.27 574.80 C 197.27 574.80 175.91 564.94 166.61 555.07 C 157.31 545.20 162.00 522.57 166.31 506.46 C 169.56 494.32 177.45 492.19 177.45 492.19 Z" fill="url(#SVGID_31_)" fill-rule="nonzero" group-id="1,4" node-id="547" stroke="none" target-height="84.379974" target-width="44.949997" target-x="157.31" target-y="490.42"></path><path d="M 233.42 492.19 C 228.08 490.42 220.84 491.60 220.54 503.58 C 220.25 515.56 231.99 534.65 227.78 541.29 C 223.52 548.02 214.41 557.58 208.61 563.02 C 209.96 569.42 213.60 574.80 213.60 574.80 C 213.60 574.80 234.96 564.94 244.26 555.07 C 253.56 545.20 248.87 522.57 244.56 506.46 C 241.32 494.32 233.42 492.19 233.42 492.19 Z" fill="url(#SVGID_32_)" fill-rule="nonzero" group-id="1,4" node-id="549" stroke="none" target-height="84.379974" target-width="44.949997" target-x="208.61" target-y="490.42"></path><path d="M 180.04 585.25 L 231.89 585.25 C 234.24 585.25 236.34 583.47 237.15 580.79 L 247.60 546.40 C 248.96 541.94 246.25 537.19 242.34 537.19 L 170.05 537.19 C 166.18 537.19 163.47 541.86 164.76 546.30 L 174.74 580.69 C 175.55 583.43 177.67 585.25 180.04 585.25 Z" fill="url(#SVGID_33_)" fill-rule="nonzero" group-id="1,4" node-id="551" stroke="none" target-height="48.059998" target-width="85.490005" target-x="163.47" target-y="537.19"></path><g node-id="586"><path d="M 177.98 601.06 C 177.98 601.06 177.18 599.30 176.56 599.11 C 175.94 598.92 167.07 598.57 163.84 597.73 C 160.61 596.89 151.28 595.56 147.28 599.34 C 143.80 602.64 142.65 610.34 147.95 614.77 C 149.94 616.50 151.89 617.00 159.26 616.66 C 166.63 616.32 177.30 616.39 179.64 612.98 C 179.56 607.34 177.98 601.06 177.98 601.06 Z" fill="#ffffff" fill-rule="nonzero" group-id="1,4,8" node-id="555" stroke="none" target-height="21.440002" target-width="36.990005" target-x="142.65" target-y="595.56"></path><path d="M 186.20 599.11 C 186.20 599.11 177.64 601.03 174.58 600.75 C 171.52 600.47 174.08 612.80 174.08 612.80 C 174.08 612.80 182.25 613.37 189.48 611.27 C 191.93 601.83 186.20 599.11 186.20 599.11 Z" fill="url(#SVGID_34_)" fill-rule="nonzero" group-id="1,4,8" node-id="557" stroke="none" target-height="14.26001" target-width="20.409988" target-x="171.52" target-y="599.11"></path><path d="M 183.14 598.66 L 187.59 612.50 C 187.59 612.50 283.23 599.90 269.56 568.87 C 258.13 542.92 183.14 598.66 183.14 598.66 Z" fill="url(#SVGID_35_)" fill-rule="nonzero" group-id="1,4,8" node-id="559" stroke="none" target-height="69.58002" target-width="100.09001" target-x="183.14" target-y="542.92"></path><path d="M 176.86 599.73 C 176.86 599.73 180.36 601.10 180.81 605.99 C 181.25 610.88 179.81 614.16 172.36 615.06 C 164.91 615.97 163.02 615.63 158.35 615.74 C 153.68 615.85 146.90 616.31 145.89 607.42 C 144.89 598.54 153.97 596.27 163.39 598.54 C 166.35 599.11 176.86 599.73 176.86 599.73 Z" fill="url(#SVGID_36_)" fill-rule="nonzero" group-id="1,4,8" node-id="561" stroke="none" target-height="20.039978" target-width="36.36" target-x="144.89" target-y="596.27"></path></g><g node-id="587"><path d="M 237.66 601.06 C 237.66 601.06 238.46 599.30 239.08 599.11 C 239.70 598.92 248.57 598.57 251.80 597.73 C 255.03 596.89 263.73 595.49 268.12 599.24 C 272.19 602.72 272.46 610.40 267.82 614.64 C 265.83 616.37 263.74 616.99 256.38 616.65 C 249.01 616.31 238.34 616.38 236.00 612.97 C 236.07 607.34 237.66 601.06 237.66 601.06 Z" fill="#ffffff" fill-rule="nonzero" group-id="1,4,9" node-id="566" stroke="none" target-height="21.5" target-width="36.45999" target-x="236" target-y="595.49"></path><path d="M 229.43 599.11 C 229.43 599.11 237.99 601.03 241.05 600.75 C 244.11 600.47 241.55 612.80 241.55 612.80 C 241.55 612.80 233.38 613.37 226.15 611.27 C 223.70 601.83 229.43 599.11 229.43 599.11 Z" fill="url(#SVGID_37_)" fill-rule="nonzero" group-id="1,4,9" node-id="568" stroke="none" target-height="14.26001" target-width="20.410004" target-x="223.7" target-y="599.11"></path><path d="M 232.50 598.66 L 228.05 612.50 C 228.05 612.50 132.41 599.90 146.08 568.87 C 157.50 542.92 232.50 598.66 232.50 598.66 Z" fill="url(#SVGID_38_)" fill-rule="nonzero" group-id="1,4,9" node-id="570" stroke="none" target-height="69.58002" target-width="100.09" target-x="132.41" target-y="542.92"></path><path d="M 238.77 599.73 C 238.77 599.73 235.27 601.10 234.82 605.99 C 234.38 610.88 235.82 614.16 243.27 615.06 C 250.72 615.96 252.61 615.63 257.28 615.74 C 261.95 615.85 268.73 616.31 269.74 607.42 C 270.74 598.54 261.66 596.27 252.24 598.54 C 249.28 599.11 238.77 599.73 238.77 599.73 Z" fill="url(#SVGID_39_)" fill-rule="nonzero" group-id="1,4,9" node-id="572" stroke="none" target-height="20.039978" target-width="36.359985" target-x="234.38" target-y="596.27"></path></g><path d="M 222.26 472.05 C 222.83 471.24 223.19 469.17 222.72 468.56 C 221.88 467.88 221.09 468.27 220.48 468.86 C 220.62 463.90 220.17 459.79 220.06 458.74 C 219.75 455.70 216.66 450.14 206.56 450.14 C 196.46 450.14 194.51 457.43 194.51 457.43 C 194.51 457.43 193.85 462.58 194.05 468.84 C 193.45 468.26 192.66 467.89 191.83 468.56 C 191.37 469.17 191.73 471.24 192.29 472.05 C 192.86 472.86 193.22 474.78 193.32 475.84 C 193.42 476.85 192.69 479.54 195.35 479.20 C 196.94 485.55 203.36 490.84 207.34 490.84 C 211.70 490.84 217.50 485.51 219.14 479.19 C 221.85 479.56 221.12 476.85 221.21 475.84 C 221.33 474.78 221.69 472.86 222.26 472.05 Z" fill="url(#SVGID_40_)" fill-rule="nonzero" group-id="1,4" node-id="575" stroke="none" target-height="40.69998" target-width="31.820007" target-x="191.37" target-y="450.14"></path><path d="M 213.85 447.98 C 213.85 447.98 211.88 441.77 204.32 443.26 C 196.77 444.74 196.26 448.32 193.29 448.45 C 188.23 448.69 184.18 454.99 190.68 461.67 C 193.57 464.64 191.13 465.92 192.50 468.55 C 193.87 471.18 193.86 473.74 193.86 473.74 C 193.86 473.74 196.27 466.03 194.68 462.74 C 193.86 461.04 197.50 460.58 202.03 460.99 C 206.56 461.39 213.71 459.89 214.27 456.81 C 215.61 463.13 216.95 463.79 218.65 464.75 C 220.35 465.71 220.45 473.35 220.45 473.35 C 220.45 473.35 220.75 467.73 221.94 466.47 C 222.92 464.40 224.83 456.25 222.67 454.28 C 220.51 452.31 222.33 445.98 213.85 447.98 Z" fill="url(#SVGID_41_)" fill-rule="nonzero" group-id="1,4" node-id="577" stroke="none" target-height="31.970001" target-width="40.65001" target-x="184.18" target-y="441.77"></path></g></g></svg>